# This file uses centimeters as units for non-parametric coordinates.

mtllib LargeWall.mtl
v -4.000000 0.000000 0.250000
v 4.000000 0.000000 0.250000
v -4.000000 4.000000 0.250000
v 4.000000 4.000000 0.250000
v -4.000000 4.000000 -0.250000
v 4.000000 4.000000 -0.250000
v -4.000000 0.000000 -0.250000
v 4.000000 0.000000 -0.250000
vt 0.998607 0.569775
vt 0.998607 0.632091
vt 0.500072 0.632091
vt 0.500072 0.569775
vt 0.998607 0.569775
vt 0.998607 0.632091
vt 0.500072 0.632091
vt 0.500072 0.569774
vt 0.001536 0.503458
vt 0.998607 0.503458
vt 0.998607 0.565775
vt 0.001536 0.565775
vt 0.001536 0.503458
vt 0.998607 0.503458
vt 0.998607 0.565775
vt 0.001536 0.565775
vt 0.001536 0.001043
vt 0.998607 0.001043
vt 0.998607 0.499578
vt 0.001536 0.499578
vt 0.998607 0.499578
vt 0.001536 0.499578
vt 0.001536 0.001043
vt 0.998607 0.001043
vn 0.000000 0.000000 1.000000
vn 0.000000 0.000000 1.000000
vn 0.000000 0.000000 1.000000
vn 0.000000 0.000000 1.000000
vn 0.000000 1.000000 0.000000
vn 0.000000 1.000000 0.000000
vn 0.000000 1.000000 0.000000
vn 0.000000 1.000000 0.000000
vn 0.000000 0.000000 -1.000000
vn 0.000000 0.000000 -1.000000
vn 0.000000 0.000000 -1.000000
vn 0.000000 0.000000 -1.000000
vn 0.000000 -1.000000 0.000000
vn 0.000000 -1.000000 0.000000
vn 0.000000 -1.000000 0.000000
vn 0.000000 -1.000000 0.000000
vn 1.000000 0.000000 0.000000
vn 1.000000 0.000000 0.000000
vn 1.000000 0.000000 0.000000
vn 1.000000 0.000000 0.000000
vn -1.000000 0.000000 0.000000
vn -1.000000 0.000000 0.000000
vn -1.000000 0.000000 0.000000
vn -1.000000 0.000000 0.000000
s off
usemtl initialShadingGroup
f 1/17/1 2/18/2 4/19/3 3/20/4
f 3/9/5 4/10/6 6/11/7 5/12/8
f 5/21/9 6/22/10 8/23/11 7/24/12
f 7/13/13 8/14/14 2/15/15 1/16/16
f 2/1/17 8/2/18 6/3/19 4/4/20
f 7/5/21 1/6/22 3/7/23 5/8/24
