# This file uses centimeters as units for non-parametric coordinates.

mtllib CeilingLowPoly.mtl
v -2.000000 -0.091691 2.000000
v 2.000000 -0.091691 2.000000
v -2.000000 0.125000 2.000000
v 2.000000 0.125000 2.000000
v -2.000000 0.125000 -2.000000
v 2.000000 0.125000 -2.000000
v -2.000000 -0.091691 -2.000000
v 2.000000 -0.091691 -2.000000
v -1.900000 -0.207572 -1.900000
v 1.900000 -0.207572 -1.900000
v 1.900000 -0.207572 1.900000
v -1.900000 -0.207572 1.900000
v -1.994751 -0.130868 -1.994751
v -1.970164 -0.167822 -1.970164
v 1.970164 -0.167822 -1.970164
v 1.994751 -0.130868 -1.994751
v 1.970164 -0.167822 1.970164
v 1.994751 -0.130868 1.994751
v -1.970164 -0.167822 1.970164
v -1.994751 -0.130868 1.994751
vt 0.001465 0.947595
vt 0.941786 0.937610
vt 0.942327 0.988550
vt 0.002006 0.998535
vt 0.002600 0.938290
vt 0.940454 0.928331
vt 0.934563 0.917958
vt 0.008269 0.927794
vt 0.024562 0.908662
vt 0.917868 0.899176
vt 0.001465 0.947593
vt 0.941787 0.937613
vt 0.942327 0.988553
vt 0.002006 0.998533
vt 0.002600 0.938288
vt 0.940454 0.928334
vt 0.008269 0.927792
vt 0.934563 0.917961
vt 0.024562 0.908660
vt 0.917868 0.899179
vt 0.001465 0.001465
vt 0.894821 0.001465
vt 0.894821 0.894821
vt 0.001465 0.894821
vt 0.001465 0.947593
vt 0.941787 0.937613
vt 0.942327 0.988553
vt 0.002006 0.998533
vt 0.002600 0.938288
vt 0.940454 0.928334
vt 0.934564 0.917961
vt 0.008269 0.927792
vt 0.024562 0.908660
vt 0.917868 0.899179
vt 0.942327 0.988550
vt 0.002006 0.998535
vt 0.001465 0.947595
vt 0.941787 0.937610
vt 0.002600 0.938290
vt 0.940454 0.928331
vt 0.934563 0.917958
vt 0.008269 0.927794
vt 0.024562 0.908662
vt 0.917868 0.899176
vn 0.000000 -0.020394 0.999792
vn 0.000000 -0.020394 0.999792
vn 0.000000 0.000000 1.000000
vn 0.000000 0.000000 1.000000
vn 0.000000 0.000000 -1.000000
vn 0.000000 0.000000 -1.000000
vn 0.000000 -0.020394 -0.999792
vn 0.000000 -0.020394 -0.999792
vn -0.010953 -0.999880 -0.010953
vn 0.010953 -0.999880 -0.010953
vn 0.010953 -0.999880 0.010953
vn -0.010953 -0.999880 0.010953
vn 0.999792 -0.020394 0.000000
vn 0.999792 -0.020394 0.000000
vn 1.000000 0.000000 0.000000
vn 1.000000 0.000000 0.000000
vn -0.999792 -0.020394 0.000000
vn -0.999792 -0.020394 0.000000
vn -1.000000 0.000000 0.000000
vn -1.000000 0.000000 0.000000
vn -0.932709 -0.360631 0.000000
vn -0.639662 -0.768656 0.000000
vn -0.639662 -0.768656 0.000000
vn -0.932709 -0.360631 0.000000
vn 0.000000 -0.768656 -0.639663
vn 0.000000 -0.360630 -0.932709
vn 0.000000 -0.360630 -0.932709
vn 0.000000 -0.768656 -0.639663
vn 0.639662 -0.768656 0.000000
vn 0.932709 -0.360631 0.000000
vn 0.932709 -0.360631 0.000000
vn 0.639662 -0.768656 0.000000
vn 0.000000 -0.768656 0.639663
vn 0.000000 -0.360630 0.932709
vn 0.000000 -0.360630 0.932709
vn 0.000000 -0.768656 0.639663
s 1
usemtl initialShadingGroup
f 1/25/1 2/26/2 4/27/3 3/28/4
f 5/35/5 6/36/6 8/37/7 7/38/8
f 9/21/9 10/22/10 11/23/11 12/24/12
f 2/1/13 8/2/14 6/3/15 4/4/16
f 7/11/17 1/12/18 3/13/19 5/14/20
f 13/15/21 14/17/22 19/18/23 20/16/24
f 14/41/25 13/40/26 16/39/27 15/42/28
f 15/7/29 16/6/30 18/5/31 17/8/32
f 17/31/33 18/30/34 20/29/35 19/32/36
f 7/38/8 8/37/7 16/39/27 13/40/26
f 14/41/25 15/42/28 10/43/10 9/44/9
f 8/2/14 2/1/13 18/5/31 16/6/30
f 15/7/29 17/8/32 11/9/11 10/10/10
f 2/26/2 1/25/1 20/29/35 18/30/34
f 17/31/33 19/32/36 12/33/12 11/34/11
f 1/12/18 7/11/17 13/15/21 20/16/24
f 19/18/23 14/17/22 9/19/9 12/20/12
